<svg width="48" height="48" viewBox="0 0 48 48" fill="none" xmlns="http://www.w3.org/2000/svg">
<g clip-path="url(#clip0_1068_2466)">
<path d="M42.5156 7.98438V10.2812C39.2656 11.4687 36.7188 13.3437 34.875 15.9062C33.0312 18.4375 32.1094 21.0781 32.1094 23.8281C32.1094 24.4219 32.2031 24.8594 32.3906 25.1406C32.5156 25.3281 32.6562 25.4219 32.8125 25.4219C32.9688 25.4219 33.2031 25.3125 33.5156 25.0938C34.5156 24.375 35.7812 24.0156 37.3125 24.0156C39.0938 24.0156 40.6719 24.75 42.0469 26.2188C43.4219 27.6562 44.1094 29.375 44.1094 31.375C44.1094 33.4688 43.3125 35.3125 41.7188 36.9062C40.1562 38.5 38.25 39.2969 36 39.2969C33.375 39.2969 31.1094 38.2188 29.2031 36.0625C27.2969 33.9062 26.3438 31.0156 26.3438 27.3906C26.3438 23.1719 27.6406 19.3906 30.2344 16.0469C32.8281 12.7031 36.9219 10.0156 42.5156 7.98438ZM19.9688 7.98438V10.2812C16.7188 11.4687 14.1719 13.3437 12.3281 15.9062C10.4844 18.4375 9.5625 21.0781 9.5625 23.8281C9.5625 24.4219 9.65625 24.8594 9.84375 25.1406C9.96875 25.3281 10.1094 25.4219 10.2656 25.4219C10.4219 25.4219 10.6562 25.3125 10.9688 25.0938C11.9688 24.375 13.2344 24.0156 14.7656 24.0156C16.5469 24.0156 18.125 24.75 19.5 26.2188C20.875 27.6562 21.5625 29.375 21.5625 31.375C21.5625 33.4688 20.7656 35.3125 19.1719 36.9062C17.6094 38.5 15.7031 39.2969 13.4531 39.2969C10.8281 39.2969 8.5625 38.2188 6.65625 36.0625C4.75 33.9062 3.79688 31.0156 3.79688 27.3906C3.79688 23.1719 5.09375 19.3906 7.6875 16.0469C10.2812 12.7031 14.375 10.0156 19.9688 7.98438Z" fill="#B91C1C"/>
</g>
<defs>
<clipPath id="clip0_1068_2466">
<rect width="48" height="48" fill="white"/>
</clipPath>
</defs>
</svg>
