<svg width="24" height="24" viewBox="0 0 24 24" fill="none" xmlns="http://www.w3.org/2000/svg">
<path d="M12 5.00001C13.4218 5.00022 14.8099 5.43341 15.9795 6.24194C17.1491 7.05047 18.0447 8.196 18.5472 9.52609C19.0497 10.8562 19.1353 12.3078 18.7925 13.6877C18.4497 15.0676 17.6948 16.3104 16.6283 17.2507C15.5617 18.191 14.2342 18.7842 12.8222 18.9514C11.4102 19.1186 9.98078 18.8519 8.72413 18.1867C7.46747 17.5215 6.44318 16.4894 5.78756 15.2278C5.13194 13.9661 4.87607 12.5347 5.054 11.124C5.07366 10.9922 5.06676 10.8577 5.0337 10.7285C5.00064 10.5994 4.94209 10.4782 4.8615 10.372C4.7809 10.2658 4.67989 10.1768 4.56439 10.1102C4.4489 10.0436 4.32125 10.0008 4.18897 9.98425C4.05669 9.96771 3.92243 9.97779 3.7941 10.0139C3.66577 10.05 3.54595 10.1114 3.4417 10.1945C3.33744 10.2776 3.25085 10.3807 3.18702 10.4977C3.12319 10.6147 3.0834 10.7434 3.07 10.876C3.02333 11.2453 3 11.62 3 12C3.00015 14.0064 3.67074 15.9552 4.90524 17.5369C6.13974 19.1185 7.86735 20.2423 9.81364 20.7297C11.7599 21.2171 13.8133 21.0402 15.6475 20.2271C17.4817 19.4139 18.9917 18.0112 19.9374 16.2417C20.8832 14.4722 21.2105 12.4374 20.8675 10.4605C20.5244 8.48366 19.5306 6.67813 18.044 5.33073C16.5573 3.98332 14.6631 3.17132 12.6621 3.02371C10.6612 2.8761 8.66827 3.40134 7 4.51601V4.00001C7 3.73479 6.89464 3.48044 6.70711 3.2929C6.51957 3.10536 6.26522 3.00001 6 3.00001C5.73478 3.00001 5.48043 3.10536 5.29289 3.2929C5.10536 3.48044 5 3.73479 5 4.00001V7.00001C5 7.26522 5.10536 7.51958 5.29289 7.70711C5.48043 7.89465 5.73478 8.00001 6 8.00001H9C9.26522 8.00001 9.51957 7.89465 9.70711 7.70711C9.89464 7.51958 10 7.26522 10 7.00001C10 6.73479 9.89464 6.48044 9.70711 6.2929C9.51957 6.10536 9.26522 6.00001 9 6.00001H8.392C9.48096 5.34385 10.7286 4.99804 12 5.00001ZM13 8.00001C13 7.73479 12.8946 7.48044 12.7071 7.2929C12.5196 7.10536 12.2652 7.00001 12 7.00001C11.7348 7.00001 11.4804 7.10536 11.2929 7.2929C11.1054 7.48044 11 7.73479 11 8.00001V12C11 12.2652 11.1054 12.5196 11.2929 12.7071C11.4804 12.8947 11.7348 13 12 13H14.5C14.7652 13 15.0196 12.8947 15.2071 12.7071C15.3946 12.5196 15.5 12.2652 15.5 12C15.5 11.7348 15.3946 11.4804 15.2071 11.2929C15.0196 11.1054 14.7652 11 14.5 11H13V8.00001Z" fill="#FAF9F6"/>
</svg>
