<svg width="16" height="16" viewBox="0 0 16 16" fill="none" xmlns="http://www.w3.org/2000/svg">
<path d="M7.95945 8.908L3.17012 13.6973C3.0279 13.8396 2.87056 13.9062 2.69812 13.8973C2.52567 13.8884 2.36834 13.8133 2.22612 13.672C2.08389 13.5307 2.01278 13.3689 2.01278 13.1867C2.01278 13.0062 2.08389 12.8449 2.22612 12.7027L6.99012 7.93867L2.20078 3.18267C2.05856 3.04044 1.9919 2.87867 2.00078 2.69733C2.00967 2.516 2.08478 2.35467 2.22612 2.21333C2.36745 2.072 2.52923 2.00089 2.71145 2C2.8919 2 3.05323 2.07111 3.19545 2.21333L7.95945 7.00267L12.7155 2.21333C12.8577 2.07111 13.015 2 13.1875 2C13.3599 2 13.5172 2.07111 13.6595 2.21333C13.807 2.36 13.8808 2.52267 13.8808 2.70133C13.8808 2.88 13.807 3.04 13.6595 3.18133L8.89545 7.93867L13.6848 12.728C13.827 12.8702 13.8981 13.0276 13.8981 13.2C13.8981 13.3724 13.827 13.5298 13.6848 13.672C13.5381 13.8196 13.3755 13.8933 13.1968 13.8933C13.0181 13.8933 12.8581 13.8196 12.7168 13.672L7.95945 8.908Z" fill="#191919"/>
</svg>
