<svg width="38" height="38" viewBox="0 0 38 38" fill="none" xmlns="http://www.w3.org/2000/svg">
<path d="M32.5998 11V19M3.7998 11V27.2576C3.7998 29.4704 6.9134 30.7856 13.139 33.4144C15.6398 34.472 16.891 35 18.1998 35V17.968M22.9998 30.2C22.9998 30.2 24.3998 30.2 25.7998 33.4C25.7998 33.4 30.2478 25.4 34.1998 23.8" stroke="#232222" stroke-width="2.5" stroke-linecap="round" stroke-linejoin="round"/>
<path d="M8.5998 19L11.7998 20.6M26.1998 6.2L10.1998 14.2M12.3214 15.3056L7.64781 13.0448C5.083 11.8032 3.7998 11.1824 3.7998 10.2C3.7998 9.2176 5.083 8.5968 7.64781 7.3552L12.3198 5.0944C15.2078 3.6976 16.6478 3 18.1998 3C19.7518 3 21.1934 3.6976 24.0782 5.0944L28.7518 7.3552C31.3166 8.5968 32.5998 9.2176 32.5998 10.2C32.5998 11.1824 31.3166 11.8032 28.7518 13.0448L24.0798 15.3056C21.1918 16.7024 19.7518 17.4 18.1998 17.4C16.6478 17.4 15.2062 16.7024 12.3214 15.3056Z" stroke="#232222" stroke-width="2.5" stroke-linecap="round" stroke-linejoin="round"/>
</svg>
