<svg width="46" height="32" viewBox="0 0 46 32" fill="none" xmlns="http://www.w3.org/2000/svg">
<g clip-path="url(#clip0_925_478)">
<path fill-rule="evenodd" clip-rule="evenodd" d="M26.8509 3.16487C26.2048 3.0988 25.3645 3.09674 24.0928 3.09674H23.0027C22.5921 3.09674 22.1982 2.93361 21.9079 2.64323C21.6175 2.35286 21.4544 1.95902 21.4544 1.54837C21.4544 1.13772 21.6175 0.743883 21.9079 0.453507C22.1982 0.163131 22.5921 0 23.0027 0H24.1692C25.3459 0 26.3451 -2.30725e-07 27.1709 0.084644C28.0483 0.175482 28.8618 0.373673 29.6277 0.848506C30.3977 1.32334 30.9366 1.96127 31.4114 2.70655C31.8284 3.36306 32.2496 4.19299 32.7327 5.16123H35.1172C35.7035 5.16123 36.2423 5.16123 36.6903 5.20252C37.1755 5.24381 37.7019 5.34497 38.2139 5.63607C38.7755 5.95606 39.24 6.42057 39.56 6.98212C39.8511 7.49411 39.9522 8.02056 39.9935 8.50571C40.0348 8.95371 40.0348 9.49254 40.0348 10.0789V10.2709C40.0348 10.8076 40.0369 11.3816 39.8634 11.9266C39.7466 12.2918 39.5724 12.636 39.3473 12.9464C39.0129 13.4089 38.5504 13.7495 38.1169 14.0654L38.0095 14.1459L37.4377 14.5671L38.4431 16.5779C39.854 16.7599 41.1874 17.3272 42.297 18.2175C43.4066 19.1077 44.2495 20.2865 44.7331 21.6244C45.2167 22.9622 45.3223 24.4075 45.0383 25.8014C44.7543 27.1954 44.0918 28.4842 43.1233 29.5263C42.1549 30.5683 40.9181 31.3234 39.5487 31.7087C38.1792 32.0939 36.7301 32.0943 35.3605 31.71C33.9908 31.3256 32.7535 30.5713 31.7844 29.5298C30.8154 28.4883 30.152 27.1999 29.8672 25.8062H19.235C18.8775 27.5564 17.9258 29.1291 16.5413 30.2579C15.1569 31.3867 13.4247 32.0022 11.6384 32C9.85202 31.9978 8.12137 31.3781 6.73966 30.2459C5.35795 29.1137 4.41015 27.5386 4.05687 25.7876C3.13749 25.6951 2.2885 25.2538 1.68447 24.5546C1.08044 23.8553 0.767294 22.9512 0.809425 22.0281V21.9084C0.809425 21.2168 0.809425 20.7771 0.840392 20.391C1.02386 18.0637 2.03155 15.8783 3.68227 14.2276C5.33299 12.5768 7.51846 11.5691 9.84571 11.3857C10.2318 11.3547 10.6715 11.3547 11.3631 11.3547H12.7876C14.6415 11.3547 16.1899 11.3547 17.4162 11.5199C18.7127 11.6933 19.8833 12.0773 20.8226 13.0187C21.764 13.958 22.148 15.1286 22.3214 16.4251C22.4866 17.6514 22.4866 19.1998 22.4866 21.0537V22.7094H29.8672C30.1443 21.3559 30.7781 20.101 31.7029 19.0745C32.6278 18.048 33.8101 17.2873 35.1275 16.871L30.0943 6.80663C29.5245 5.66703 29.1487 4.91762 28.7978 4.37053C28.4674 3.85028 28.2321 3.62525 28.0009 3.4828C27.7717 3.33828 27.4641 3.22887 26.8509 3.16487ZM19.3899 22.7094V21.1611C19.3899 19.1709 19.3857 17.8331 19.2536 16.8359C19.1235 15.8842 18.9026 15.4754 18.6343 15.2071C18.3659 14.9387 17.9571 14.7178 17.0033 14.5877C16.0082 14.4556 14.6704 14.4515 12.6803 14.4515H11.4416C10.6447 14.4515 10.3371 14.4515 10.0893 14.4721C8.49666 14.5974 7.00099 15.287 5.87132 16.4166C4.74166 17.5463 4.05215 19.0419 3.92681 20.6346C3.8996 21.153 3.89271 21.6723 3.90616 22.1912C3.92681 22.4431 4.17248 22.6867 4.42229 22.7074L19.3899 22.7094ZM7.26716 25.8062C7.58677 26.7128 8.17979 27.4979 8.96444 28.0533C9.74909 28.6086 10.6867 28.9069 11.648 28.9069C12.6093 28.9069 13.5469 28.6086 14.3316 28.0533C15.1162 27.4979 15.7093 26.7128 16.0289 25.8062H7.26716ZM32.8091 24.2578C32.8091 23.0258 33.2985 21.8443 34.1696 20.9732C35.0407 20.1021 36.2222 19.6127 37.4542 19.6127C38.6861 19.6127 39.8676 20.1021 40.7388 20.9732C41.6099 21.8443 42.0993 23.0258 42.0993 24.2578C42.0993 25.4898 41.6099 26.6713 40.7388 27.5424C39.8676 28.4135 38.6861 28.9029 37.4542 28.9029C36.2222 28.9029 35.0407 28.4135 34.1696 27.5424C33.2985 26.6713 32.8091 25.4898 32.8091 24.2578ZM36.0297 11.7573L36.1742 11.652C36.4591 11.4414 36.6201 11.3217 36.7357 11.2267C36.7725 11.1969 36.807 11.1645 36.839 11.1297C36.8712 11.0857 36.8962 11.0369 36.9133 10.9852C36.9092 10.9976 36.9215 10.9748 36.9277 10.8427C36.9381 10.692 36.9381 10.4918 36.9381 10.1387C36.9381 9.4719 36.9381 9.07551 36.9112 8.78235C36.9057 8.69152 36.8905 8.60155 36.8658 8.51397C36.8221 8.43755 36.7595 8.37359 36.6841 8.32817C36.5957 8.30478 36.505 8.29094 36.4137 8.28688C35.9621 8.25949 35.5096 8.24985 35.0573 8.25797H34.2831L36.0297 11.7573Z" fill="#232222"/>
</g>
<defs>
<clipPath id="clip0_925_478">
<rect width="44.3884" height="32" fill="white" transform="translate(0.805664)"/>
</clipPath>
</defs>
</svg>
