<svg width="80" height="80" viewBox="0 0 80 80" fill="none" xmlns="http://www.w3.org/2000/svg">
<path d="M65 37.5C64.9977 34.8165 64.2758 32.1827 62.9097 29.873C61.5435 27.5633 59.5831 25.6621 57.2325 24.3675C59.0041 22.5196 59.9953 20.0599 60 17.5H55C54.9987 18.8257 54.4715 20.0967 53.5341 21.0341C52.5967 21.9715 51.3257 22.4987 50 22.5C46.071 22.5052 42.3007 24.0507 39.4986 26.8048C36.6964 29.5588 35.0858 33.3017 35.0125 37.23C31.8072 33.9653 30.0079 29.5752 30 25C29.9934 22.789 29.2536 20.6427 27.8963 18.8973C26.5391 17.1519 24.6412 15.9061 22.5 15.355V10H17.5V15.355C15.3588 15.9061 13.4609 17.1519 12.1037 18.8973C10.7464 20.6427 10.0066 22.789 10 25V37.5H5V40C5 49.2826 8.68749 58.185 15.2513 64.7487C21.815 71.3125 30.7174 75 40 75C49.2826 75 58.185 71.3125 64.7487 64.7487C71.3125 58.185 75 49.2826 75 40V37.5H65ZM50 27.5C52.6511 27.5033 55.1928 28.5579 57.0674 30.4326C58.9421 32.3072 59.9967 34.8489 60 37.5H40C40.0033 34.8489 41.0579 32.3072 42.9326 30.4326C44.8072 28.5579 47.3489 27.5033 50 27.5ZM15 25C15 23.6739 15.5268 22.4021 16.4645 21.4645C17.4021 20.5268 18.6739 20 20 20C21.3261 20 22.5979 20.5268 23.5355 21.4645C24.4732 22.4021 25 23.6739 25 25C25.01 29.4541 26.343 33.8048 28.83 37.5H15V25ZM40 70C32.4792 69.9901 25.2357 67.1596 19.7006 62.068C14.1655 56.9763 10.7415 49.9938 10.105 42.5H69.8975C69.261 49.9942 65.8366 56.9771 60.301 62.0688C54.7653 67.1605 47.5212 69.9907 40 70Z" fill="#232222"/>
</svg>
