<svg width="12" height="12" viewBox="0 0 12 12" fill="none" xmlns="http://www.w3.org/2000/svg">
<path d="M11 1.705L10.94 1.075L10.34 1.275C9.31174 1.63227 8.21366 1.74191 7.13503 1.595C6.0016 1.41911 4.84149 1.57541 3.79503 2.045C3.24027 2.28122 2.75341 2.65246 2.37877 3.12491C2.00413 3.59735 1.75361 4.156 1.65003 4.75C1.51572 5.51734 1.58291 6.30641 1.84503 7.04C2.01381 6.65904 2.21103 6.29134 2.43503 5.94C2.94313 5.19242 3.64717 4.59909 4.47003 4.225C5.26275 3.86306 6.12922 3.69182 7.00003 3.725C6.17104 3.85175 5.37753 4.14974 4.67003 4.6C4.32877 4.81443 4.01625 5.0715 3.74003 5.365C3.47586 5.65836 3.24294 5.97842 3.04503 6.32C2.67329 7.03401 2.40879 7.79889 2.26003 8.59C2.09969 9.38367 2.01265 10.1904 2.00003 11H3.00003C3.04703 10.2739 3.14561 9.5521 3.29503 8.84C3.98875 9.2146 4.76671 9.40565 5.55503 9.395C6.29027 9.3945 7.01794 9.24658 7.69503 8.96C11.5 7.335 11 1.93 11 1.705Z" fill="#175119"/>
</svg>
