<svg width="32" height="32" viewBox="0 0 32 32" fill="none" xmlns="http://www.w3.org/2000/svg">
<g clip-path="url(#clip0_925_1785)">
<path d="M5 3.5V26.5C5 26.776 5.224 27 5.5 27H11.84C12.2378 27 12.6194 27.158 12.9007 27.4393C13.182 27.7206 13.34 28.1022 13.34 28.5C13.34 28.8978 13.182 29.2794 12.9007 29.5607C12.6194 29.842 12.2378 30 11.84 30H5.5C4.57174 30 3.6815 29.6313 3.02513 28.9749C2.36875 28.3185 2 27.4283 2 26.5V3.5C2 1.568 3.568 0 5.5 0H22.5C24.432 0 26 1.568 26 3.5V18.972C26 19.3698 25.842 19.7514 25.5607 20.0327C25.2794 20.314 24.8978 20.472 24.5 20.472C24.1022 20.472 23.7206 20.314 23.4393 20.0327C23.158 19.7514 23 19.3698 23 18.972V3.5C23 3.36739 22.9473 3.24021 22.8536 3.14645C22.7598 3.05268 22.6326 3 22.5 3H5.5C5.36739 3 5.24021 3.05268 5.14645 3.14645C5.05268 3.24021 5 3.36739 5 3.5ZM31.548 22.574L22.434 31.474C22.1511 31.7497 21.7708 31.9027 21.3757 31.8997C20.9806 31.8967 20.6027 31.738 20.324 31.458L16.438 27.558C16.1736 27.2732 16.03 26.8968 16.0376 26.5082C16.0452 26.1196 16.2033 25.7491 16.4786 25.4748C16.754 25.2005 17.1251 25.0437 17.5137 25.0376C17.9023 25.0315 18.2782 25.1765 18.562 25.442L21.4 28.292L29.452 20.428C29.7368 20.1501 30.1204 19.9966 30.5184 20.0015C30.7154 20.0039 30.9101 20.0451 31.0912 20.1228C31.2723 20.2004 31.4364 20.313 31.574 20.454C31.7116 20.595 31.8201 20.7618 31.8933 20.9448C31.9665 21.1277 32.0029 21.3233 32.0005 21.5204C31.9981 21.7174 31.9569 21.9121 31.8792 22.0932C31.8016 22.2743 31.689 22.4384 31.548 22.576M9.5 8H18.5C18.8978 8 19.2794 8.15804 19.5607 8.43934C19.842 8.72064 20 9.10218 20 9.5C20 9.89782 19.842 10.2794 19.5607 10.5607C19.2794 10.842 18.8978 11 18.5 11H9.5C9.10218 11 8.72064 10.842 8.43934 10.5607C8.15804 10.2794 8 9.89782 8 9.5C8 9.10218 8.15804 8.72064 8.43934 8.43934C8.72064 8.15804 9.10218 8 9.5 8ZM8 15.5C8 15.1022 8.15804 14.7206 8.43934 14.4393C8.72064 14.158 9.10218 14 9.5 14H13.5C13.8978 14 14.2794 14.158 14.5607 14.4393C14.842 14.7206 15 15.1022 15 15.5C15 15.8978 14.842 16.2794 14.5607 16.5607C14.2794 16.842 13.8978 17 13.5 17H9.5C9.10218 17 8.72064 16.842 8.43934 16.5607C8.15804 16.2794 8 15.8978 8 15.5Z" fill="#232222"/>
</g>
<defs>
<clipPath id="clip0_925_1785">
<rect width="32" height="32" fill="white"/>
</clipPath>
</defs>
</svg>
