<svg width="80" height="80" viewBox="0 0 80 80" fill="none" xmlns="http://www.w3.org/2000/svg">
<path d="M46.68 34.148C46.3631 34.1459 46.0582 34.2692 45.8319 34.491C45.6056 34.7128 45.4762 35.0151 45.472 35.332V44.18C45.4762 44.4976 45.6062 44.8005 45.8333 45.0224C46.0605 45.2444 46.3664 45.3672 46.684 45.364H73.336C73.6536 45.3672 73.9595 45.2444 74.1867 45.0224C74.4138 44.8005 74.5438 44.4976 74.548 44.18V35.332C74.5438 35.0144 74.4138 34.7115 74.1867 34.4896C73.9595 34.2676 73.6536 34.1448 73.336 34.148H46.68ZM63.024 6.004C66.712 6.18 69.364 6.908 71.044 8.452C72.704 9.98 73.556 12.192 73.724 15.12V23.508C73.7156 24.2223 73.4239 24.9041 72.9132 25.4036C72.4025 25.9031 71.7143 26.1795 71 26.172C70.646 26.1762 70.2945 26.1107 69.9658 25.9791C69.6371 25.8475 69.3375 25.6524 69.0842 25.405C68.8309 25.1577 68.6288 24.8628 68.4894 24.5373C68.3501 24.2118 68.2762 23.8621 68.272 23.508L68.276 15.272C68.188 13.752 67.824 12.808 67.304 12.328C66.8 11.864 65.264 11.448 62.892 11.328H10.588C8.44 11.408 7.044 11.816 6.368 12.396C5.848 12.84 5.456 14.064 5.452 16.18L5.44 63.26C5.64 65.316 6.092 66.688 6.672 67.372C7.112 67.892 8.476 68.412 10.484 68.668H62.948C65.404 68.716 66.852 68.348 67.34 67.856C67.88 67.308 68.272 65.868 68.272 63.512V55.332C68.272 53.864 69.492 52.668 71 52.668C72.504 52.668 73.724 53.864 73.724 55.332V63.512C73.724 67.112 72.988 69.804 71.264 71.552C69.488 73.352 66.664 74.072 62.892 73.992L10.16 73.98C6.572 73.564 4 72.58 2.468 70.768C1.08 69.128 0.308 66.788 0 63.516V16.176C0.008 12.672 0.848 10.036 2.776 8.388C4.544 6.868 7.096 6.128 10.484 6L63.024 6.004ZM73.336 28.82C77.016 28.82 80 31.736 80 35.332V44.18C80 47.776 77.016 50.692 73.336 50.692H46.684C43.004 50.692 40.02 47.772 40.02 44.18V35.332C40.02 31.736 43.004 28.82 46.684 28.82H73.336ZM53.348 36.58C51.508 36.58 50.016 38.02 50.016 39.792C50.016 41.568 51.508 43.004 53.348 43.004C55.188 43.004 56.68 41.564 56.68 39.792C56.68 38.016 55.188 36.576 53.348 36.576" fill="#191919"/>
</svg>
