<svg width="12" height="15" viewBox="0 0 12 15" fill="none" xmlns="http://www.w3.org/2000/svg">
<path fill-rule="evenodd" clip-rule="evenodd" d="M5.9371 0.829284C6.66678 0.82006 7.39058 0.960673 8.06372 1.24242C8.73687 1.52417 9.34503 1.94106 9.85058 2.4673C10.3561 2.99354 10.7483 3.61792 11.0029 4.30182C11.2574 4.98571 11.3689 5.71457 11.3304 6.44328C11.2801 7.38353 10.9818 8.29369 10.4658 9.08128C10.4419 9.13006 10.4121 9.17573 10.3771 9.21728L10.3051 9.30328C10.186 9.46551 10.0587 9.62084 9.92311 9.76928L6.5151 13.9186C6.45256 13.9947 6.37395 14.056 6.2849 14.098C6.19585 14.1401 6.09859 14.1619 6.0001 14.1619C5.90162 14.1619 5.80436 14.1401 5.71531 14.098C5.62626 14.056 5.54764 13.9947 5.4851 13.9186L1.98777 9.67328L1.98644 9.67195C1.91663 9.58844 1.84795 9.50399 1.78044 9.41862L1.69177 9.30995C1.65758 9.26871 1.62848 9.22349 1.6051 9.17528C1.05885 8.37922 0.739077 7.44974 0.679934 6.48609C0.62079 5.52245 0.824498 4.56084 1.2693 3.70395C1.71411 2.84706 2.3833 2.12708 3.20542 1.62089C4.02754 1.11471 4.97171 0.841329 5.9371 0.82995V0.829284ZM7.99977 6.16462C8.00462 6.43029 7.95648 6.69427 7.85817 6.94112C7.75986 7.18798 7.61334 7.41278 7.42717 7.60238C7.241 7.79197 7.01892 7.94257 6.7739 8.04538C6.52887 8.14818 6.26582 8.20113 6.0001 8.20113C5.73439 8.20113 5.47133 8.14818 5.22631 8.04538C4.98129 7.94257 4.75921 7.79197 4.57304 7.60238C4.38687 7.41278 4.24035 7.18798 4.14204 6.94112C4.04372 6.69427 3.99559 6.43029 4.00044 6.16462C4.01001 5.6406 4.22489 5.14127 4.59886 4.77407C4.97283 4.40686 5.476 4.20113 6.0001 4.20113C6.52421 4.20113 7.02738 4.40686 7.40135 4.77407C7.77532 5.14127 7.9902 5.6406 7.99977 6.16462Z" fill="#B91C1C"/>
</svg>
