<svg width="16" height="16" viewBox="0 0 16 16" fill="none" xmlns="http://www.w3.org/2000/svg">
<path fill-rule="evenodd" clip-rule="evenodd" d="M7.93735 1.32934C8.66702 1.32011 9.39082 1.46073 10.064 1.74248C10.7371 2.02423 11.3453 2.44112 11.8508 2.96735C12.3564 3.49359 12.7486 4.11797 13.0031 4.80187C13.2577 5.48576 13.3691 6.21462 13.3307 6.94334C13.2804 7.88358 12.9821 8.79375 12.466 9.58134C12.4421 9.63011 12.4123 9.67579 12.3773 9.71734L12.3053 9.80334C12.1862 9.96556 12.0589 10.1209 11.9233 10.2693L8.51535 14.4187C8.45281 14.4948 8.37419 14.556 8.28514 14.5981C8.1961 14.6402 8.09883 14.662 8.00035 14.662C7.90186 14.662 7.8046 14.6402 7.71555 14.5981C7.62651 14.556 7.54789 14.4948 7.48535 14.4187L3.98802 10.1733L3.98668 10.172C3.91687 10.0885 3.8482 10.004 3.78068 9.91867L3.69202 9.81C3.65782 9.76876 3.62872 9.72355 3.60535 9.67534C3.05909 8.87928 2.73932 7.94979 2.68018 6.98615C2.62103 6.0225 2.82474 5.06089 3.26955 4.204C3.71435 3.34712 4.38355 2.62713 5.20567 2.12095C6.02779 1.61476 6.97196 1.34138 7.93735 1.33V1.32934ZM10 6.66467C10.0049 6.93034 9.95673 7.19432 9.85841 7.44118C9.7601 7.68804 9.61358 7.91283 9.42741 8.10243C9.24125 8.29203 9.01917 8.44263 8.77414 8.54543C8.52912 8.64823 8.26607 8.70118 8.00035 8.70118C7.73463 8.70118 7.47158 8.64823 7.22656 8.54543C6.98153 8.44263 6.75945 8.29203 6.57328 8.10243C6.38712 7.91283 6.2406 7.68804 6.14228 7.44118C6.04397 7.19432 5.99583 6.93034 6.00068 6.66467C6.01025 6.14065 6.22514 5.64132 6.5991 5.27412C6.97307 4.90692 7.47624 4.70118 8.00035 4.70118C8.52446 4.70118 9.02763 4.90692 9.40159 5.27412C9.77556 5.64132 9.99045 6.14065 10 6.66467Z" fill="#232222"/>
</svg>
