<svg width="16" height="16" viewBox="0 0 16 16" fill="none" xmlns="http://www.w3.org/2000/svg">
<path fill-rule="evenodd" clip-rule="evenodd" d="M7.9371 1.32928C8.66678 1.32006 9.39058 1.46067 10.0637 1.74242C10.7369 2.02417 11.345 2.44106 11.8506 2.9673C12.3561 3.49354 12.7483 4.11792 13.0029 4.80182C13.2574 5.48571 13.3689 6.21457 13.3304 6.94328C13.2801 7.88353 12.9818 8.79369 12.4658 9.58128C12.4419 9.63006 12.4121 9.67573 12.3771 9.71728L12.3051 9.80328C12.186 9.96551 12.0587 10.1208 11.9231 10.2693L8.5151 14.4186C8.45256 14.4947 8.37395 14.556 8.2849 14.598C8.19585 14.6401 8.09859 14.6619 8.0001 14.6619C7.90162 14.6619 7.80436 14.6401 7.71531 14.598C7.62626 14.556 7.54764 14.4947 7.4851 14.4186L3.98777 10.1733L3.98644 10.172C3.91663 10.0884 3.84795 10.004 3.78044 9.91862L3.69177 9.80995C3.65758 9.76871 3.62848 9.72349 3.6051 9.67528C3.05885 8.87922 2.73908 7.94974 2.67993 6.98609C2.62079 6.02245 2.8245 5.06084 3.2693 4.20395C3.71411 3.34706 4.3833 2.62708 5.20542 2.12089C6.02754 1.61471 6.97171 1.34133 7.9371 1.32995V1.32928ZM9.99977 6.66462C10.0046 6.93029 9.95648 7.19427 9.85817 7.44112C9.75986 7.68798 9.61334 7.91278 9.42717 8.10238C9.241 8.29197 9.01892 8.44257 8.7739 8.54538C8.52887 8.64818 8.26582 8.70113 8.0001 8.70113C7.73439 8.70113 7.47133 8.64818 7.22631 8.54538C6.98129 8.44257 6.75921 8.29197 6.57304 8.10238C6.38687 7.91278 6.24035 7.68798 6.14204 7.44112C6.04372 7.19427 5.99559 6.93029 6.00044 6.66462C6.01001 6.1406 6.22489 5.64127 6.59886 5.27407C6.97283 4.90686 7.476 4.70113 8.0001 4.70113C8.52421 4.70113 9.02738 4.90686 9.40135 5.27407C9.77532 5.64127 9.9902 6.1406 9.99977 6.66462Z" fill="#FAF9F6"/>
</svg>
