<svg width="80" height="80" viewBox="0 0 80 80" fill="none" xmlns="http://www.w3.org/2000/svg">
<path d="M34.0666 62.7366L62.2666 43.7699C67.0832 40.5299 69.4899 38.9099 69.9299 35.9599C70.3632 33.0099 68.7832 31.0266 65.6199 27.0599C58.3599 17.9599 48.4932 11.1766 37.2066 7.93659C32.9132 6.70326 30.7666 6.08992 28.4666 7.39659C26.1666 8.70326 25.4132 11.2533 23.9099 16.3533L14.6866 47.6766C10.3732 62.3333 8.21656 69.6599 11.8266 72.4633C15.4366 75.2666 21.6466 71.0899 34.0666 62.7366Z" stroke="#191919" stroke-width="5" stroke-linecap="round" stroke-linejoin="round"/>
<path d="M25.0001 16.6665C25.0001 16.6665 26.7934 17.0598 29.6667 17.9365C38.7734 20.7198 46.9001 26.1098 53.3334 33.3365M43.3601 36.6665H43.3301M20.9467 26.5132C24.5301 27.4965 26.8134 30.7732 26.8134 34.7565C26.8134 40.3132 21.4134 44.5598 16.0801 43.0465M27.4101 62.4965C25.5701 59.2632 26.0734 55.0298 28.8901 52.2098C32.2534 48.8465 37.6401 48.7832 40.9234 52.0665C41.4745 52.6221 41.9301 53.2265 42.2901 53.8798" stroke="#191919" stroke-width="5" stroke-linecap="round" stroke-linejoin="round"/>
<path d="M43.0767 56.6434C42.09 52.8267 38.86 50.03 35.03 50.03C30.4133 50.03 26.6733 54.0934 26.6733 59.1034C26.6733 61.76 27.7233 64.1467 29.3967 65.8067" stroke="#191919" stroke-width="5" stroke-linecap="round" stroke-linejoin="round"/>
</svg>
