<svg width="40" height="34" viewBox="0 0 40 34" fill="none" xmlns="http://www.w3.org/2000/svg">
<g clip-path="url(#clip0_925_1682)">
<path d="M13.75 7V2C13.75 1.66848 13.8817 1.35054 14.1161 1.11612C14.3505 0.881696 14.6685 0.75 15 0.75C15.3315 0.75 15.6495 0.881696 15.8839 1.11612C16.1183 1.35054 16.25 1.66848 16.25 2V7C16.25 7.33152 16.1183 7.64946 15.8839 7.88388C15.6495 8.1183 15.3315 8.25 15 8.25C14.6685 8.25 14.3505 8.1183 14.1161 7.88388C13.8817 7.64946 13.75 7.33152 13.75 7ZM20 8.25C20.3315 8.25 20.6495 8.1183 20.8839 7.88388C21.1183 7.64946 21.25 7.33152 21.25 7V2C21.25 1.66848 21.1183 1.35054 20.8839 1.11612C20.6495 0.881696 20.3315 0.75 20 0.75C19.6685 0.75 19.3505 0.881696 19.1161 1.11612C18.8817 1.35054 18.75 1.66848 18.75 2V7C18.75 7.33152 18.8817 7.64946 19.1161 7.88388C19.3505 8.1183 19.6685 8.25 20 8.25ZM25 8.25C25.3315 8.25 25.6495 8.1183 25.8839 7.88388C26.1183 7.64946 26.25 7.33152 26.25 7V2C26.25 1.66848 26.1183 1.35054 25.8839 1.11612C25.6495 0.881696 25.3315 0.75 25 0.75C24.6685 0.75 24.3505 0.881696 24.1161 1.11612C23.8817 1.35054 23.75 1.66848 23.75 2V7C23.75 7.33152 23.8817 7.64946 24.1161 7.88388C24.3505 8.1183 24.6685 8.25 25 8.25ZM39.5 15.5L35 18.875V28.25C35 29.5761 34.4732 30.8479 33.5355 31.7855C32.5979 32.7232 31.3261 33.25 30 33.25H10C8.67392 33.25 7.40215 32.7232 6.46447 31.7855C5.52679 30.8479 5.00001 29.5761 5.00001 28.25V18.875L0.500005 15.5C0.234789 15.3011 0.0594523 15.005 0.0125682 14.6768C-0.0343159 14.3486 0.0510927 14.0152 0.250005 13.75C0.448917 13.4848 0.74504 13.3094 1.07323 13.2626C1.40142 13.2157 1.73479 13.3011 2.00001 13.5L5.00001 15.75V12C5.00001 11.6685 5.1317 11.3505 5.36612 11.1161C5.60054 10.8817 5.91848 10.75 6.25001 10.75H33.75C34.0815 10.75 34.3995 10.8817 34.6339 11.1161C34.8683 11.3505 35 11.6685 35 12V15.75L38 13.5C38.2652 13.3011 38.5986 13.2157 38.9268 13.2626C39.255 13.3094 39.5511 13.4848 39.75 13.75C39.9489 14.0152 40.0343 14.3486 39.9874 14.6768C39.9406 15.005 39.7652 15.3011 39.5 15.5ZM32.5 13.25H7.50001V28.25C7.50001 28.913 7.7634 29.5489 8.23224 30.0178C8.70108 30.4866 9.33696 30.75 10 30.75H30C30.663 30.75 31.2989 30.4866 31.7678 30.0178C32.2366 29.5489 32.5 28.913 32.5 28.25V13.25Z" fill="#232222"/>
</g>
<defs>
<clipPath id="clip0_925_1682">
<rect width="40" height="32.5" fill="white" transform="translate(0 0.75)"/>
</clipPath>
</defs>
</svg>
