<svg width="80" height="80" viewBox="0 0 80 80" fill="none" xmlns="http://www.w3.org/2000/svg">
<path d="M65 5H15C13.6172 5 12.5 6.11719 12.5 7.5V72.5C12.5 73.8828 13.6172 75 15 75H65C66.3828 75 67.5 73.8828 67.5 72.5V7.5C67.5 6.11719 66.3828 5 65 5ZM44.6875 10.625H52.1875V27.0234L48.5547 24.375L44.6875 27.1406V10.625ZM61.875 69.375H18.125V10.625H40V33.8203C40 34.0781 40.0781 34.3359 40.2344 34.5469C40.3292 34.681 40.4497 34.7949 40.5889 34.8821C40.7281 34.9693 40.8831 35.028 41.0452 35.0549C41.2072 35.0818 41.3729 35.0763 41.5328 35.0387C41.6927 35.0011 41.8435 34.9322 41.9766 34.8359L48.5234 30.1562L54.8828 34.7969C55.0938 34.9531 55.3516 35.0391 55.6172 35.0391C56.3047 35.0391 56.8672 34.4766 56.8672 33.7891V10.625H61.8672V69.375H61.875Z" fill="#232222"/>
</svg>
