<svg width="80" height="80" viewBox="0 0 80 80" fill="none" xmlns="http://www.w3.org/2000/svg">
<path d="M73.333 53.3335C73.333 47.8106 68.8559 43.3335 63.333 43.3335C57.8102 43.3335 53.333 47.8106 53.333 53.3335C53.333 58.8563 57.8102 63.3335 63.333 63.3335C68.8559 63.3335 73.333 58.8563 73.333 53.3335Z" stroke="#191919" stroke-width="6.25"/>
<path d="M36.6665 53.3333V48.3333C36.6665 42.0467 36.6665 38.9067 34.7132 36.9533C32.7598 35 29.6198 35 23.3332 35H21.3332C20.0965 35 19.4765 35 18.9532 35.04C15.7881 35.289 12.8157 36.6592 10.5707 38.9042C8.3257 41.1492 6.95548 44.1216 6.7065 47.2867C6.6665 47.81 6.6665 48.4333 6.6665 49.6667C6.6665 49.9767 6.6665 50.1333 6.6765 50.26C6.73842 51.0518 7.08105 51.7955 7.64267 52.3572C8.20429 52.9188 8.948 53.2614 9.73984 53.3233C9.93743 53.3337 10.1353 53.337 10.3332 53.3333H36.6665ZM36.6665 53.3333H53.3332" stroke="#191919" stroke-width="6.25" stroke-linecap="round"/>
<path d="M31.6665 53.3334C31.6665 55.9856 30.6129 58.5291 28.7376 60.4045C26.8622 62.2798 24.3187 63.3334 21.6665 63.3334C19.0143 63.3334 16.4708 62.2798 14.5954 60.4045C12.7201 58.5291 11.6665 55.9856 11.6665 53.3334M39.9998 16.6667H41.7598C45.7698 16.6667 47.7732 16.6667 49.3832 17.6634C50.9965 18.6567 51.8932 20.4501 53.6832 24.0367L63.3332 43.3334M60.4765 36.6667L62.7465 34.9934C63.6232 34.3467 64.0632 34.0267 64.3665 33.6034C64.5742 33.3173 64.7351 33 64.8432 32.6634C64.9998 32.1667 64.9998 31.6234 64.9998 30.5367C64.9998 28.4767 64.9998 27.4501 64.5598 26.6801C64.2645 26.1636 63.8363 25.7355 63.3198 25.4401C62.5532 25.0001 61.5198 25.0001 59.4632 25.0001H54.9998" stroke="#191919" stroke-width="6.25" stroke-linecap="round"/>
<path d="M63.333 63.3335C68.8559 63.3335 73.333 58.8563 73.333 53.3335C73.333 47.8106 68.8559 43.3335 63.333 43.3335C57.8102 43.3335 53.333 47.8106 53.333 53.3335C53.333 58.8563 57.8102 63.3335 63.333 63.3335Z" stroke="#191919" stroke-width="6.25"/>
</svg>
