<svg width="80" height="80" viewBox="0 0 80 80" fill="none" xmlns="http://www.w3.org/2000/svg">
<path d="M73.3335 53.3334C73.3335 47.8105 68.8563 43.3334 63.3335 43.3334C57.8106 43.3334 53.3335 47.8105 53.3335 53.3334C53.3335 58.8562 57.8106 63.3334 63.3335 63.3334C68.8563 63.3334 73.3335 58.8562 73.3335 53.3334Z" stroke="#232222" stroke-width="6.25"/>
<path d="M36.6667 53.3333V48.3333C36.6667 42.0467 36.6667 38.9067 34.7134 36.9533C32.7601 35 29.6201 35 23.3334 35H21.3334C20.0967 35 19.4767 35 18.9534 35.04C15.7883 35.289 12.8159 36.6592 10.5709 38.9042C8.32595 41.1492 6.95572 44.1216 6.70675 47.2867C6.66675 47.81 6.66675 48.4333 6.66675 49.6667C6.66675 49.9767 6.66675 50.1333 6.67675 50.26C6.73867 51.0518 7.08129 51.7955 7.64291 52.3572C8.20454 52.9188 8.94824 53.2614 9.74008 53.3233C9.93768 53.3337 10.1356 53.337 10.3334 53.3333H36.6667ZM36.6667 53.3333H53.3334" stroke="#232222" stroke-width="6.25" stroke-linecap="round"/>
<path d="M31.6667 53.3334C31.6667 55.9855 30.6132 58.5291 28.7378 60.4044C26.8625 62.2798 24.3189 63.3334 21.6667 63.3334C19.0146 63.3334 16.471 62.2798 14.5957 60.4044C12.7203 58.5291 11.6667 55.9855 11.6667 53.3334M40.0001 16.6667H41.7601C45.7701 16.6667 47.7734 16.6667 49.3834 17.6634C50.9967 18.6567 51.8934 20.45 53.6834 24.0367L63.3334 43.3334M60.4767 36.6667L62.7467 34.9934C63.6234 34.3467 64.0634 34.0267 64.3667 33.6034C64.5745 33.3173 64.7354 33 64.8434 32.6634C65.0001 32.1667 65.0001 31.6234 65.0001 30.5367C65.0001 28.4767 65.0001 27.45 64.5601 26.68C64.2647 26.1635 63.8366 25.7354 63.3201 25.44C62.5534 25 61.5201 25 59.4634 25H55.0001" stroke="#232222" stroke-width="6.25" stroke-linecap="round"/>
<path d="M63.3335 63.3334C68.8563 63.3334 73.3335 58.8562 73.3335 53.3334C73.3335 47.8105 68.8563 43.3334 63.3335 43.3334C57.8106 43.3334 53.3335 47.8105 53.3335 53.3334C53.3335 58.8562 57.8106 63.3334 63.3335 63.3334Z" stroke="#232222" stroke-width="6.25"/>
</svg>
