<svg width="90" height="80" viewBox="0 0 90 80" fill="none" xmlns="http://www.w3.org/2000/svg">
<path d="M82.5187 47.0811L89.9052 14.5811C90.4384 12.2345 88.6548 10 86.2484 10H24.8762L23.4441 2.99844C23.0872 1.25328 21.5516 0 19.7702 0H3.75C1.67891 0 0 1.67891 0 3.75V6.25C0 8.32109 1.67891 10 3.75 10H14.6692L25.6455 63.6617C23.0195 65.1719 21.25 68.0034 21.25 71.25C21.25 76.0825 25.1675 80 30 80C34.8325 80 38.75 76.0825 38.75 71.25C38.75 68.8009 37.7427 66.5883 36.1212 65H68.8786C67.2573 66.5883 66.25 68.8009 66.25 71.25C66.25 76.0825 70.1675 80 75 80C79.8325 80 83.75 76.0825 83.75 71.25C83.75 67.7856 81.7362 64.7919 78.8158 63.3742L79.6778 59.5811C80.2111 57.2345 78.4275 55 76.0211 55H34.0808L33.0581 50H78.862C80.613 50 82.1308 48.7884 82.5187 47.0811Z" fill="#4C4C4B"/>
</svg>
