<svg width="844" height="750" viewBox="0 0 844 750" fill="none" xmlns="http://www.w3.org/2000/svg">
<path d="M1.79918 17.517C0.700199 17.628 -0.10072 18.6089 0.0102753 19.7079C0.12127 20.8069 1.10215 21.6078 2.20112 21.4968L1.79918 17.517ZM771.749 683.977C772.285 683.011 771.936 681.794 770.97 681.258L755.23 672.526C754.264 671.99 753.047 672.339 752.511 673.304C751.975 674.27 752.324 675.488 753.29 676.024L767.281 683.786L759.519 697.777C758.983 698.743 759.332 699.96 760.297 700.496C761.263 701.032 762.481 700.683 763.017 699.717L771.749 683.977ZM2.20112 21.4968C4.944 21.2198 7.67854 20.9462 10.4048 20.6762L10.0105 16.6957C7.28168 16.966 4.54459 17.2398 1.79918 17.517L2.20112 21.4968ZM26.6627 19.0975C32.0488 18.5852 37.4019 18.0866 42.7221 17.6018L42.3591 13.6183C37.0336 14.1036 31.6752 14.6027 26.2839 15.1155L26.6627 19.0975ZM58.5842 16.1882C63.8388 15.7306 69.0607 15.2866 74.25 14.856L73.9193 10.8697C68.7245 11.3007 63.4972 11.7452 58.2372 12.2032L58.5842 16.1882ZM89.7205 13.6046C95.1777 13.1747 100.598 12.7599 105.982 12.3601L105.686 8.37104C100.296 8.77131 94.8694 9.18658 89.4063 9.617L89.7205 13.6046ZM122.188 11.1941C127.553 10.8206 132.881 10.4623 138.172 10.119L137.914 6.12742C132.616 6.4711 127.282 6.82982 121.911 7.20371L122.188 11.1941ZM153.936 9.13412C159.153 8.82074 164.335 8.52224 169.479 8.23846L169.259 4.24454C164.108 4.52867 158.92 4.82755 153.696 5.14131L153.936 9.13412ZM185.534 7.3947C191.002 7.12174 196.427 6.86574 201.81 6.62653L201.633 2.63048C196.242 2.87001 190.809 3.12635 185.335 3.39967L185.534 7.3947ZM217.836 5.95907C223.136 5.75325 228.395 5.56403 233.612 5.39123L233.48 1.39342C228.255 1.56648 222.989 1.75597 217.681 1.96209L217.836 5.95907ZM249.141 4.92192C254.589 4.77326 259.991 4.64288 265.346 4.53056L265.263 0.531435C259.898 0.643936 254.488 0.774523 249.032 0.923413L249.141 4.92192ZM281.585 4.2431C286.951 4.16591 292.269 4.10726 297.54 4.06692L297.51 0.0670409C292.229 0.107444 286.902 0.166194 281.528 0.243518L281.585 4.2431ZM313.214 4.00064C318.501 3.99663 323.739 4.01147 328.93 4.04493L328.956 0.045013C323.755 0.0114921 318.507 -0.0033787 313.211 0.000642122L313.214 4.00064ZM345.307 4.21426C350.711 4.29151 356.062 4.38947 361.36 4.50785L361.449 0.508847C356.141 0.390227 350.779 0.292072 345.364 0.21467L345.307 4.21426ZM377.092 4.92393C382.33 5.08429 387.514 5.26514 392.644 5.46617L392.801 1.46924C387.659 1.26775 382.464 1.08651 377.215 0.925808L377.092 4.92393ZM409.049 6.18631C414.456 6.44956 419.801 6.7359 425.084 7.04494L425.318 3.05176C420.021 2.74195 414.663 2.45492 409.244 2.19104L409.049 6.18631ZM440.753 8.03981C446.051 8.40327 451.287 8.79026 456.458 9.20037L456.775 5.21289C451.588 4.80164 446.339 4.4136 441.026 4.04918L440.753 8.03981ZM472.734 10.5857C478.089 11.0733 483.372 11.5865 488.586 12.1248L488.997 8.14599C483.767 7.60599 478.467 7.09124 473.097 6.60223L472.734 10.5857ZM504.019 13.8147C509.474 14.4469 514.85 15.1076 520.146 15.7962L520.662 11.8296C515.347 11.1386 509.953 10.4756 504.479 9.8413L504.019 13.8147ZM536.073 17.9844C541.301 18.7422 546.447 19.5282 551.514 20.3418L552.148 16.3924C547.061 15.5755 541.894 14.7864 536.647 14.0258L536.073 17.9844ZM567.339 23.0177C572.713 23.9736 577.992 24.9618 583.178 25.9815L583.95 22.0566C578.74 21.0322 573.437 20.0395 568.039 19.0795L567.339 23.0177ZM598.455 29.1342C603.8 30.2909 609.04 31.4826 614.175 32.7083L615.104 28.8176C609.94 27.5852 604.673 26.3872 599.301 25.2247L598.455 29.1342ZM629.694 36.5974C634.782 37.9353 639.76 39.3083 644.63 40.7153L645.74 36.8724C640.838 35.4563 635.829 34.0748 630.711 32.7289L629.694 36.5974ZM660.268 45.4655C665.352 47.0888 670.309 48.7513 675.141 50.4517L676.469 46.6785C671.599 44.9648 666.605 43.2898 661.485 41.655L660.268 45.4655ZM690.175 56.0188C695.214 57.9814 700.102 59.9879 704.845 62.0363L706.431 58.3642C701.643 56.2961 696.709 54.2712 691.627 52.2916L690.175 56.0188ZM719.278 68.6124C724.173 70.9657 728.895 73.3672 733.446 75.8142L735.34 72.291C730.734 69.8146 725.959 67.3859 721.011 65.0073L719.278 68.6124ZM747.221 83.6658C751.842 86.4602 756.263 89.306 760.489 92.1996L762.749 88.8991C758.459 85.9616 753.975 83.075 749.291 80.2429L747.221 83.6658ZM773.355 101.618C777.558 104.912 781.532 108.259 785.285 111.655L787.969 108.689C784.144 105.228 780.098 101.82 775.822 98.4697L773.355 101.618ZM796.691 122.832C800.389 126.768 803.817 130.759 806.984 134.797L810.132 132.328C806.889 128.194 803.384 124.113 799.606 120.093L796.691 122.832ZM816.053 147.567C818.942 152.089 821.534 156.661 823.843 161.274L827.42 159.483C825.048 154.745 822.387 150.052 819.424 145.413L816.053 147.567ZM830.129 175.746C831.973 180.72 833.514 185.732 834.77 190.771L838.651 189.804C837.36 184.623 835.775 179.47 833.88 174.356L830.129 175.746ZM837.73 206.213C838.44 211.429 838.866 216.664 839.025 221.907L843.023 221.785C842.86 216.407 842.423 211.033 841.694 205.674L837.73 206.213ZM838.718 237.68C838.361 242.912 837.756 248.141 836.92 253.355L840.869 253.989C841.724 248.66 842.344 243.31 842.709 237.952L838.718 237.68ZM833.76 268.831C832.499 273.927 831.031 278.997 829.37 284.031L833.168 285.284C834.86 280.158 836.357 274.99 837.643 269.792L833.76 268.831ZM823.875 298.892C821.88 303.766 819.715 308.593 817.395 313.363L820.992 315.112C823.348 310.268 825.548 305.363 827.577 300.408L823.875 298.892ZM810.037 327.398C807.447 332.004 804.72 336.543 801.872 341.005L805.244 343.157C808.131 338.634 810.896 334.031 813.524 329.358L810.037 327.398ZM792.974 354.155C789.887 358.469 786.693 362.694 783.409 366.82L786.538 369.311C789.865 365.133 793.1 360.853 796.227 356.483L792.974 354.155ZM773.22 378.979C769.689 382.985 766.08 386.875 762.409 390.64L765.273 393.432C768.991 389.62 772.645 385.68 776.221 381.624L773.22 378.979ZM751.025 401.736C749.087 403.528 747.139 405.285 745.181 407.004L747.819 410.01C749.804 408.268 751.779 406.488 753.741 404.671L751.025 401.736ZM745.181 407.004C743.157 408.781 741.098 410.462 739.004 412.05L741.422 415.237C743.592 413.59 745.725 411.849 747.819 410.01L745.181 407.004ZM725.884 420.58C721.274 423.116 716.522 425.284 711.636 427.108L713.034 430.855C718.099 428.965 723.028 426.717 727.812 424.084L725.884 420.58ZM696.56 431.578C691.486 432.722 686.286 433.556 680.968 434.103L681.377 438.082C686.843 437.52 692.2 436.661 697.439 435.48L696.56 431.578ZM665.226 434.906C660.059 434.918 654.797 434.7 649.444 434.27L649.123 438.257C654.577 438.695 659.95 438.918 665.236 438.906L665.226 434.906ZM633.697 432.445C628.54 431.676 623.312 430.738 618.018 429.645L617.209 433.562C622.57 434.669 627.871 435.621 633.107 436.402L633.697 432.445ZM602.425 426.041C597.382 424.759 592.287 423.355 587.144 421.844L586.016 425.682C591.202 427.206 596.344 428.622 601.439 429.918L602.425 426.041ZM571.923 417.113C566.906 415.473 561.851 413.745 556.76 411.941L555.424 415.711C560.543 417.525 565.629 419.264 570.68 420.915L571.923 417.113ZM541.787 406.461C536.849 404.601 531.884 402.681 526.894 400.71L525.425 404.431C530.432 406.408 535.417 408.336 540.376 410.204L541.787 406.461ZM512.019 394.727C507.121 392.724 502.203 390.682 497.268 388.612L495.721 392.3C500.665 394.375 505.594 396.421 510.505 398.429L512.019 394.727ZM482.532 382.373C477.634 380.282 472.722 378.173 467.8 376.052L466.217 379.726C471.142 381.847 476.058 383.959 480.963 386.052L482.532 382.373ZM453.115 369.716C448.216 367.601 443.309 365.484 438.398 363.373L436.819 367.048C441.726 369.157 446.63 371.273 451.53 373.388L453.115 369.716ZM423.672 357.078C418.744 354.984 413.815 352.907 408.888 350.853L407.349 354.545C412.266 356.595 417.187 358.669 422.108 360.759L423.672 357.078ZM394.071 344.755C389.098 342.738 384.131 340.754 379.173 338.812L377.714 342.537C382.656 344.472 387.608 346.45 392.567 348.462L394.071 344.755ZM364.17 333.067C359.141 331.187 354.124 329.361 349.122 327.598L347.792 331.371C352.768 333.125 357.762 334.942 362.769 336.814L364.17 333.067ZM333.891 322.418C328.752 320.737 323.633 319.134 318.537 317.62L317.397 321.454C322.456 322.958 327.541 324.55 332.648 326.22L333.891 322.418ZM303.108 313.296C297.858 311.918 292.637 310.647 287.448 309.496L286.582 313.401C291.716 314.54 296.888 315.799 302.093 317.165L303.108 313.296ZM271.625 306.348C266.279 305.413 260.973 304.622 255.712 303.988L255.234 307.959C260.42 308.584 265.655 309.365 270.936 310.288L271.625 306.348ZM239.702 302.552C234.243 302.239 228.839 302.117 223.497 302.204L223.562 306.203C228.8 306.118 234.106 306.237 239.473 306.546L239.702 302.552ZM207.343 303.138C201.938 303.687 196.605 304.479 191.35 305.531L192.136 309.453C197.258 308.427 202.464 307.654 207.748 307.117L207.343 303.138ZM175.663 309.544C170.507 311.165 165.44 313.073 160.471 315.287L162.098 318.941C166.925 316.791 171.848 314.936 176.863 313.36L175.663 309.544ZM146.088 322.729C141.521 325.44 137.052 328.448 132.686 331.766L135.107 334.951C139.352 331.724 143.695 328.801 148.13 326.168L146.088 322.729ZM120.337 342.26C116.47 345.916 112.698 349.853 109.025 354.084L112.045 356.706C115.635 352.572 119.317 348.73 123.085 345.167L120.337 342.26ZM99.1021 366.57C97.4918 368.78 95.9035 371.055 94.3378 373.395L97.6626 375.619C99.1991 373.322 100.756 371.092 102.334 368.926L99.1021 366.57ZM94.3378 373.395C92.8437 375.629 91.3792 377.868 89.9447 380.113L93.3153 382.267C94.7346 380.046 96.1838 377.83 97.6626 375.619L94.3378 373.395ZM81.699 393.639C79.0009 398.287 76.4309 402.953 73.9912 407.632L77.5382 409.482C79.9494 404.857 82.4901 400.244 85.1584 395.647L81.699 393.639ZM66.975 421.899C64.7342 426.745 62.634 431.601 60.6766 436.461L64.3869 437.955C66.3188 433.159 68.3924 428.364 70.6057 423.578L66.975 421.899ZM55.1007 451.44C53.3673 456.513 51.7918 461.585 50.3768 466.65L54.2293 467.727C55.6234 462.736 57.1764 457.736 58.8859 452.733L55.1007 451.44ZM46.5614 482.073C45.4307 487.327 44.4768 492.567 43.7027 497.788L47.6594 498.374C48.4206 493.241 49.3589 488.086 50.4719 482.915L46.5614 482.073ZM41.9007 513.657C41.4822 518.999 41.2585 524.312 41.2328 529.59L45.2327 529.61C45.2579 524.431 45.4774 519.216 45.8885 513.97L41.9007 513.657ZM41.7682 545.524C42.1577 550.867 42.7596 556.164 43.5775 561.409L47.5297 560.793C46.729 555.658 46.1393 550.469 45.7577 545.234L41.7682 545.524ZM46.7089 577.085C47.9766 582.262 49.4676 587.377 51.1854 592.421L54.9719 591.132C53.2924 586.2 51.8342 581.198 50.5941 576.134L46.7089 577.085ZM57.0102 607.309C59.1667 612.166 61.5495 616.946 64.1618 621.641L67.6571 619.696C65.1032 615.106 62.774 610.434 60.6661 605.686L57.0102 607.309ZM72.5283 635.223C75.4836 639.579 78.6546 643.848 82.0442 648.023L85.1497 645.502C81.8317 641.415 78.729 637.238 75.8384 632.977L72.5283 635.223ZM92.628 660.008C96.2741 663.813 100.121 667.525 104.172 671.139L106.835 668.155C102.861 664.608 99.0887 660.968 95.5158 657.241L92.628 660.008ZM116.377 681.254C120.517 684.443 124.835 687.541 129.334 690.545L131.555 687.219C127.13 684.264 122.885 681.218 118.818 678.085L116.377 681.254ZM142.968 699.035C147.433 701.627 152.052 704.134 156.827 706.554L158.635 702.986C153.926 700.6 149.374 698.128 144.976 695.576L142.968 699.035ZM171.28 713.398C176.033 715.498 180.924 717.518 185.953 719.456L187.391 715.723C182.42 713.808 177.59 711.813 172.897 709.739L171.28 713.398ZM200.885 724.826C205.846 726.488 210.929 728.075 216.136 729.585L217.25 725.743C212.094 724.248 207.064 722.678 202.156 721.033L200.885 724.826ZM231.373 733.69C236.461 734.961 241.658 736.161 246.965 737.29L247.798 733.378C242.535 732.258 237.384 731.068 232.342 729.809L231.373 733.69ZM262.426 740.319C267.577 741.244 272.826 742.105 278.172 742.9L278.76 738.943C273.453 738.154 268.244 737.3 263.132 736.382L262.426 740.319ZM293.847 745.007C299.013 745.629 304.264 746.193 309.602 746.697L309.977 742.714C304.674 742.214 299.456 741.654 294.325 741.035L293.847 745.007ZM325.529 748.002C330.671 748.362 335.89 748.668 341.184 748.919L341.374 744.923C336.109 744.673 330.92 744.369 325.807 744.012L325.529 748.002ZM357.296 749.507C362.431 749.64 367.635 749.723 372.907 749.755L372.932 745.755C367.685 745.723 362.508 745.64 357.399 745.508L357.296 749.507ZM388.788 749.703C394.058 749.636 399.393 749.521 404.794 749.356L404.672 745.358C399.295 745.522 393.983 745.637 388.738 745.703L388.788 749.703ZM420.396 748.749C425.657 748.501 430.977 748.207 436.358 747.868L436.106 743.875C430.746 744.214 425.447 744.506 420.208 744.753L420.396 748.749ZM452.186 746.746C457.336 746.343 462.54 745.898 467.796 745.411L467.428 741.428C462.189 741.913 457.005 742.357 451.873 742.759L452.186 746.746ZM483.727 743.824C488.926 743.27 494.176 742.676 499.476 742.041L499 738.069C493.717 738.702 488.485 739.294 483.304 739.846L483.727 743.824ZM515.008 740.084C520.232 739.393 525.505 738.664 530.825 737.896L530.253 733.937C524.949 734.703 519.692 735.43 514.483 736.118L515.008 740.084ZM546.613 735.523C551.7 734.729 556.829 733.9 562.001 733.036L561.341 729.091C556.184 729.953 551.069 730.779 545.996 731.571L546.613 735.523ZM577.644 730.337C582.901 729.402 588.201 728.432 593.544 727.425L592.803 723.494C587.473 724.498 582.187 725.467 576.943 726.399L577.644 730.337ZM608.794 724.475C613.898 723.463 619.039 722.419 624.219 721.342L623.405 717.426C618.237 718.501 613.107 719.542 608.016 720.552L608.794 724.475ZM639.875 718.014C645.025 716.894 650.212 715.743 655.437 714.56L654.553 710.659C649.34 711.84 644.164 712.988 639.025 714.105L639.875 718.014ZM670.613 711.058C675.707 709.861 680.834 708.634 685.997 707.376L685.05 703.49C679.898 704.745 674.781 705.969 669.698 707.164L670.613 711.058ZM701.587 703.513C706.66 702.235 711.765 700.929 716.903 699.593L715.897 695.722C710.769 697.055 705.673 698.359 700.61 699.635L701.587 703.513ZM731.997 695.612C737.06 694.257 742.153 692.875 747.278 691.465L746.217 687.608C741.101 689.016 736.017 690.396 730.963 691.748L731.997 695.612ZM762.746 687.15C765.34 686.417 767.941 685.677 770.551 684.93L769.449 681.084C766.845 681.83 764.247 682.569 761.658 683.301L762.746 687.15Z" fill="#4C4C4B"/>
</svg>
