<svg width="12" height="13" viewBox="0 0 12 13" fill="none" xmlns="http://www.w3.org/2000/svg">
<path d="M6 1.25C7.39239 1.25 8.72774 1.80312 9.71231 2.78769C10.6969 3.77226 11.25 5.10761 11.25 6.5C11.25 7.89239 10.6969 9.22774 9.71231 10.2123C8.72774 11.1969 7.39239 11.75 6 11.75C4.60761 11.75 3.27226 11.1969 2.28769 10.2123C1.30312 9.22774 0.75 7.89239 0.75 6.5C0.75 5.10761 1.30312 3.77226 2.28769 2.78769C3.27226 1.80312 4.60761 1.25 6 1.25ZM5.346 7.53575L4.17975 6.36875C4.13794 6.32694 4.08831 6.29378 4.03368 6.27115C3.97905 6.24852 3.9205 6.23687 3.86137 6.23687C3.80225 6.23687 3.7437 6.24852 3.68907 6.27115C3.63444 6.29378 3.58481 6.32694 3.543 6.36875C3.45856 6.45319 3.41112 6.56771 3.41112 6.68713C3.41112 6.80654 3.45856 6.92106 3.543 7.0055L5.028 8.4905C5.06969 8.53252 5.11929 8.56587 5.17393 8.58864C5.22857 8.6114 5.28718 8.62312 5.34637 8.62312C5.40557 8.62312 5.46418 8.6114 5.51882 8.58864C5.57346 8.56587 5.62306 8.53252 5.66475 8.4905L8.73975 5.41475C8.78212 5.37311 8.81582 5.3235 8.83892 5.26877C8.86202 5.21405 8.87405 5.15529 8.87433 5.09588C8.87461 5.03648 8.86312 4.97761 8.84053 4.92267C8.81794 4.86773 8.7847 4.81781 8.74272 4.77578C8.70074 4.73375 8.65086 4.70045 8.59594 4.6778C8.54103 4.65515 8.48218 4.64359 8.42277 4.64379C8.36337 4.644 8.3046 4.65597 8.24984 4.679C8.19509 4.70203 8.14544 4.73568 8.10375 4.778L5.346 7.53575Z" fill="#419254"/>
</svg>
