<svg width="20" height="20" viewBox="0 0 20 20" fill="none" xmlns="http://www.w3.org/2000/svg">
<path d="M13.7105 10.7099C14.6909 9.93854 15.4065 8.8808 15.7577 7.68382C16.109 6.48684 16.0784 5.21015 15.6703 4.03135C15.2621 2.85255 14.4967 1.83027 13.4806 1.10674C12.4644 0.3832 11.2479 -0.00561523 10.0005 -0.00561523C8.75303 -0.00561523 7.5366 0.3832 6.52041 1.10674C5.50423 1.83027 4.73883 2.85255 4.3307 4.03135C3.92256 5.21015 3.892 6.48684 4.24325 7.68382C4.59449 8.8808 5.31009 9.93854 6.29048 10.7099C4.61056 11.3829 3.14477 12.4992 2.04938 13.9398C0.953983 15.3804 0.270048 17.0912 0.070485 18.8899C0.0560396 19.0212 0.0676015 19.1541 0.10451 19.2809C0.141419 19.4078 0.202952 19.5261 0.285596 19.6292C0.452504 19.8374 0.695268 19.9707 0.960485 19.9999C1.2257 20.0291 1.49164 19.9517 1.69981 19.7848C1.90798 19.6179 2.04131 19.3751 2.07048 19.1099C2.29007 17.1551 3.22217 15.3497 4.6887 14.0387C6.15524 12.7277 8.05338 12.0029 10.0205 12.0029C11.9876 12.0029 13.8857 12.7277 15.3523 14.0387C16.8188 15.3497 17.7509 17.1551 17.9705 19.1099C17.9977 19.3556 18.1149 19.5825 18.2996 19.7469C18.4843 19.9113 18.7233 20.0014 18.9705 19.9999H19.0805C19.3426 19.9697 19.5822 19.8372 19.747 19.6311C19.9119 19.4251 19.9886 19.1622 19.9605 18.8999C19.76 17.0961 19.0724 15.3809 17.9713 13.9381C16.8703 12.4953 15.3974 11.3794 13.7105 10.7099ZM10.0005 9.99988C9.20936 9.99988 8.436 9.76528 7.7782 9.32576C7.12041 8.88623 6.60772 8.26152 6.30497 7.53061C6.00222 6.79971 5.923 5.99544 6.07734 5.21952C6.23168 4.4436 6.61265 3.73086 7.17206 3.17145C7.73147 2.61204 8.4442 2.23108 9.22012 2.07674C9.99605 1.9224 10.8003 2.00161 11.5312 2.30436C12.2621 2.60711 12.8868 3.1198 13.3264 3.7776C13.7659 4.4354 14.0005 5.20875 14.0005 5.99988C14.0005 7.06075 13.5791 8.07816 12.8289 8.82831C12.0788 9.57845 11.0614 9.99988 10.0005 9.99988Z" fill="#232222"/>
</svg>
