<svg width="16" height="17" viewBox="0 0 16 17" fill="none" xmlns="http://www.w3.org/2000/svg">
<path d="M8 9.16658C9.59733 9.16658 11.05 9.62925 12.1187 10.2813C12.652 10.6066 13.108 10.9906 13.4373 11.4079C13.7613 11.8179 14 12.3086 14 12.8333C14 13.3966 13.726 13.8406 13.3313 14.1573C12.958 14.4573 12.4653 14.6559 11.942 14.7946C10.89 15.0726 9.486 15.1666 8 15.1666C6.514 15.1666 5.11 15.0733 4.058 14.7946C3.53467 14.6559 3.042 14.4573 2.66867 14.1573C2.27333 13.8399 2 13.3966 2 12.8333C2 12.3086 2.23867 11.8179 2.56267 11.4073C2.892 10.9906 3.34733 10.6073 3.88133 10.2806C4.95 9.62992 6.40333 9.16658 8 9.16658ZM8 1.83325C8.88406 1.83325 9.7319 2.18444 10.357 2.80956C10.9821 3.43468 11.3333 4.28253 11.3333 5.16659C11.3333 6.05064 10.9821 6.89849 10.357 7.52361C9.7319 8.14873 8.88406 8.49992 8 8.49992C7.11595 8.49992 6.2681 8.14873 5.64298 7.52361C5.01786 6.89849 4.66667 6.05064 4.66667 5.16659C4.66667 4.28253 5.01786 3.43468 5.64298 2.80956C6.2681 2.18444 7.11595 1.83325 8 1.83325Z" fill="#FAF9F6"/>
</svg>
