<svg width="14" height="15" viewBox="0 0 14 15" fill="none" xmlns="http://www.w3.org/2000/svg">
<g clip-path="url(#clip0_619_1827)">
<path d="M7 8.08332C8.39767 8.08332 9.66875 8.48816 10.6038 9.05866C11.0705 9.34332 11.4695 9.67932 11.7577 10.0445C12.0412 10.4032 12.25 10.8326 12.25 11.2917C12.25 11.7846 12.0102 12.1731 11.6649 12.4502C11.3382 12.7127 10.9072 12.8865 10.4493 13.0078C9.52875 13.2511 8.30025 13.3333 7 13.3333C5.69975 13.3333 4.47125 13.2517 3.55075 13.0078C3.09283 12.8865 2.66175 12.7127 2.33508 12.4502C1.98917 12.1725 1.75 11.7846 1.75 11.2917C1.75 10.8326 1.95883 10.4032 2.24233 10.0439C2.5305 9.67932 2.92892 9.34391 3.39617 9.05807C4.33125 8.48874 5.60292 8.08332 7 8.08332ZM7 1.66666C7.77355 1.66666 8.51541 1.97395 9.06239 2.52093C9.60938 3.06791 9.91667 3.80977 9.91667 4.58332C9.91667 5.35687 9.60938 6.09874 9.06239 6.64572C8.51541 7.1927 7.77355 7.49999 7 7.49999C6.22645 7.49999 5.48459 7.1927 4.93761 6.64572C4.39062 6.09874 4.08333 5.35687 4.08333 4.58332C4.08333 3.80977 4.39062 3.06791 4.93761 2.52093C5.48459 1.97395 6.22645 1.66666 7 1.66666Z" fill="#4C4C4B"/>
</g>
<defs>
<clipPath id="clip0_619_1827">
<rect width="14" height="14" fill="white" transform="translate(0 0.5)"/>
</clipPath>
</defs>
</svg>
