<svg width="80" height="81" viewBox="0 0 80 81" fill="none" xmlns="http://www.w3.org/2000/svg">
<path d="M52.3667 42.8668C55.6346 40.2956 58.02 36.7698 59.1908 32.7799C60.3616 28.79 60.2597 24.5343 58.8993 20.605C57.5388 16.6757 54.9875 13.2681 51.6002 10.8563C48.2129 8.44449 44.1582 7.14844 40 7.14844C35.8418 7.14844 31.787 8.44449 28.3998 10.8563C25.0125 13.2681 22.4611 16.6757 21.1007 20.605C19.7403 24.5343 19.6384 28.79 20.8092 32.7799C21.98 36.7698 24.3653 40.2956 27.6333 42.8668C22.0336 45.1102 17.1476 48.8312 13.4963 53.6331C9.84498 58.435 7.5652 64.1378 6.89999 70.1334C6.85184 70.5712 6.89038 71.0141 7.01341 71.4369C7.13644 71.8598 7.34155 72.2543 7.61703 72.5978C8.17339 73.2917 8.9826 73.7362 9.86666 73.8334C10.7507 73.9307 11.6372 73.6727 12.3311 73.1164C13.025 72.56 13.4694 71.7508 13.5667 70.8667C14.2986 64.3507 17.4056 58.3328 22.2941 53.9627C27.1825 49.5927 33.5097 47.1768 40.0667 47.1768C46.6237 47.1768 52.9508 49.5927 57.8393 53.9627C62.7277 58.3328 65.8347 64.3507 66.5667 70.8667C66.6573 71.6858 67.0481 72.4423 67.6637 72.9901C68.2792 73.538 69.0759 73.8384 69.9 73.8334H70.2667C71.1404 73.7329 71.9391 73.2911 72.4885 72.6042C73.038 71.9174 73.2937 71.0413 73.2 70.1667C72.5316 64.1541 70.2396 58.4367 66.5695 53.6274C62.8994 48.8182 57.9897 45.0984 52.3667 42.8668ZM40 40.5001C37.3629 40.5001 34.785 39.7181 32.5924 38.253C30.3997 36.7879 28.6908 34.7055 27.6816 32.2692C26.6724 29.8329 26.4084 27.152 26.9228 24.5656C27.4373 21.9791 28.7072 19.6034 30.5719 17.7387C32.4366 15.874 34.8124 14.6041 37.3988 14.0896C39.9852 13.5752 42.6661 13.8392 45.1024 14.8484C47.5388 15.8575 49.6212 17.5665 51.0863 19.7592C52.5513 21.9518 53.3333 24.5297 53.3333 27.1668C53.3333 30.703 51.9286 34.0944 49.4281 36.5948C46.9276 39.0953 43.5362 40.5001 40 40.5001Z" fill="#191919"/>
</svg>
